<mxfile host="app.diagrams.net" agent="Mozilla/5.0 (Windows NT 10.0; Win64; x64; rv:138.0) Gecko/20100101 Firefox/138.0" version="27.0.5">
  <diagram name="Page-1" id="miUqKVmsm-pqGBcqUNgH">
    <mxGraphModel dx="983" dy="518" grid="1" gridSize="10" guides="1" tooltips="1" connect="1" arrows="1" fold="1" page="1" pageScale="1" pageWidth="827" pageHeight="1169" background="#FFFFFF" math="0" shadow="0">
      <root>
        <mxCell id="0" />
        <mxCell id="1" parent="0" />
        <mxCell id="WNqidh4Z6-0X3fDuYej7-1" value="" style="line;strokeWidth=2;direction=south;html=1;" vertex="1" parent="1">
          <mxGeometry x="80" y="80" width="10" height="480" as="geometry" />
        </mxCell>
        <mxCell id="WNqidh4Z6-0X3fDuYej7-2" value="&lt;b&gt;Host&lt;br&gt;Datapool&lt;/b&gt;" style="text;html=1;align=center;verticalAlign=middle;whiteSpace=wrap;rounded=0;" vertex="1" parent="1">
          <mxGeometry x="40" y="40" width="90" height="40" as="geometry" />
        </mxCell>
        <mxCell id="WNqidh4Z6-0X3fDuYej7-3" value="" style="line;strokeWidth=2;direction=south;html=1;" vertex="1" parent="1">
          <mxGeometry x="760" y="80" width="10" height="480" as="geometry" />
        </mxCell>
        <mxCell id="WNqidh4Z6-0X3fDuYej7-4" value="&lt;b&gt;Client&lt;br&gt;Raspberry Pi&lt;/b&gt;" style="text;html=1;align=center;verticalAlign=middle;whiteSpace=wrap;rounded=0;" vertex="1" parent="1">
          <mxGeometry x="720" y="40" width="90" height="40" as="geometry" />
        </mxCell>
        <mxCell id="WNqidh4Z6-0X3fDuYej7-5" value="" style="endArrow=classic;html=1;rounded=0;entryX=0.098;entryY=0.5;entryDx=0;entryDy=0;entryPerimeter=0;exitX=0.093;exitY=0.6;exitDx=0;exitDy=0;exitPerimeter=0;" edge="1" parent="1">
          <mxGeometry relative="1" as="geometry">
            <mxPoint x="763.9999999999998" y="119.06000000000006" as="sourcePoint" />
            <mxPoint x="85" y="121.15999999999997" as="targetPoint" />
          </mxGeometry>
        </mxCell>
        <mxCell id="WNqidh4Z6-0X3fDuYej7-8" value="https://www.wallenhauer.com/resource.php?grant_type=authorization_code&amp;amp;Authorization=Basic+..." style="edgeLabel;html=1;align=center;verticalAlign=middle;resizable=0;points=[];" vertex="1" connectable="0" parent="WNqidh4Z6-0X3fDuYej7-5">
          <mxGeometry x="-0.0015" y="-1" relative="1" as="geometry">
            <mxPoint y="15" as="offset" />
          </mxGeometry>
        </mxCell>
        <mxCell id="WNqidh4Z6-0X3fDuYej7-16" value="GET request" style="edgeLabel;html=1;align=center;verticalAlign=middle;resizable=0;points=[];" vertex="1" connectable="0" parent="WNqidh4Z6-0X3fDuYej7-5">
          <mxGeometry x="-0.0063" relative="1" as="geometry">
            <mxPoint y="-10" as="offset" />
          </mxGeometry>
        </mxCell>
        <mxCell id="WNqidh4Z6-0X3fDuYej7-9" value="" style="endArrow=classic;html=1;rounded=0;entryX=0.187;entryY=0.472;entryDx=0;entryDy=0;entryPerimeter=0;exitX=0.19;exitY=0.679;exitDx=0;exitDy=0;exitPerimeter=0;" edge="1" parent="1" source="WNqidh4Z6-0X3fDuYej7-1" target="WNqidh4Z6-0X3fDuYej7-3">
          <mxGeometry relative="1" as="geometry">
            <mxPoint x="90" y="160" as="sourcePoint" />
            <mxPoint x="190" y="160" as="targetPoint" />
          </mxGeometry>
        </mxCell>
        <mxCell id="WNqidh4Z6-0X3fDuYej7-10" value="&lt;div align=&quot;left&quot;&gt;scope&amp;nbsp;&amp;nbsp;&amp;nbsp;&amp;nbsp;&amp;nbsp;&amp;nbsp;&amp;nbsp;&amp;nbsp;&amp;nbsp;&amp;nbsp;&amp;nbsp;&amp;nbsp;&amp;nbsp;&amp;nbsp;&amp;nbsp;&amp;nbsp;&amp;nbsp;&amp;nbsp;&amp;nbsp; &quot;SourcePot\\Datapool\\Processing\\RemoteClient&quot;&lt;br&gt;method&amp;nbsp;&amp;nbsp;&amp;nbsp;&amp;nbsp;&amp;nbsp;&amp;nbsp;&amp;nbsp;&amp;nbsp;&amp;nbsp;&amp;nbsp;&amp;nbsp;&amp;nbsp;&amp;nbsp;&amp;nbsp;&amp;nbsp;&amp;nbsp; &quot;clientCall&quot;&lt;br&gt;client_id&amp;nbsp;&amp;nbsp;&amp;nbsp;&amp;nbsp;&amp;nbsp;&amp;nbsp;&amp;nbsp;&amp;nbsp;&amp;nbsp;&amp;nbsp;&amp;nbsp;&amp;nbsp;&amp;nbsp;&amp;nbsp;&amp;nbsp; &quot;pi&quot;&lt;br&gt;access_token&amp;nbsp;&amp;nbsp;&amp;nbsp;&amp;nbsp;&amp;nbsp;&amp;nbsp; {access token}&lt;br&gt;expires_in&amp;nbsp;&amp;nbsp;&amp;nbsp;&amp;nbsp;&amp;nbsp;&amp;nbsp;&amp;nbsp;&amp;nbsp;&amp;nbsp;&amp;nbsp;&amp;nbsp;&amp;nbsp; 600&lt;br&gt;expires&amp;nbsp;&amp;nbsp;&amp;nbsp;&amp;nbsp;&amp;nbsp;&amp;nbsp;&amp;nbsp;&amp;nbsp;&amp;nbsp;&amp;nbsp;&amp;nbsp;&amp;nbsp;&amp;nbsp;&amp;nbsp;&amp;nbsp;&amp;nbsp;&amp;nbsp; 1747157406&lt;br&gt;expires_datetime &quot;2025-05-13 17:30:06&quot;&lt;/div&gt;" style="edgeLabel;resizable=0;html=1;;align=left;verticalAlign=middle;" connectable="0" vertex="1" parent="WNqidh4Z6-0X3fDuYej7-9">
          <mxGeometry relative="1" as="geometry">
            <mxPoint x="-147" y="47" as="offset" />
          </mxGeometry>
        </mxCell>
        <mxCell id="WNqidh4Z6-0X3fDuYej7-15" value="JSON answer" style="edgeLabel;html=1;align=center;verticalAlign=middle;resizable=0;points=[];" vertex="1" connectable="0" parent="WNqidh4Z6-0X3fDuYej7-9">
          <mxGeometry x="-0.0066" y="-1" relative="1" as="geometry">
            <mxPoint y="-11" as="offset" />
          </mxGeometry>
        </mxCell>
        <mxCell id="WNqidh4Z6-0X3fDuYej7-13" value="&lt;div align=&quot;center&quot;&gt;&lt;b&gt;&lt;font style=&quot;font-size: 13px;&quot;&gt;Request access token from Datapool&lt;/font&gt;&lt;/b&gt;&lt;/div&gt;" style="text;strokeColor=none;fillColor=none;align=center;verticalAlign=middle;spacingLeft=4;spacingRight=4;overflow=hidden;points=[[0,0.5],[1,0.5]];portConstraint=eastwest;rotatable=0;whiteSpace=wrap;html=1;" vertex="1" parent="1">
          <mxGeometry x="283" y="70" width="261" height="30" as="geometry" />
        </mxCell>
        <mxCell id="WNqidh4Z6-0X3fDuYej7-17" value="&lt;div align=&quot;center&quot;&gt;&lt;b&gt;Data exchange&lt;/b&gt;&lt;/div&gt;" style="text;strokeColor=none;fillColor=none;align=center;verticalAlign=middle;spacingLeft=4;spacingRight=4;overflow=hidden;points=[[0,0.5],[1,0.5]];portConstraint=eastwest;rotatable=0;whiteSpace=wrap;html=1;" vertex="1" parent="1">
          <mxGeometry x="290" y="280" width="261" height="20" as="geometry" />
        </mxCell>
        <mxCell id="WNqidh4Z6-0X3fDuYej7-18" value="" style="endArrow=classic;html=1;rounded=0;entryX=0.576;entryY=0.472;entryDx=0;entryDy=0;entryPerimeter=0;exitX=0.575;exitY=0.679;exitDx=0;exitDy=0;exitPerimeter=0;" edge="1" parent="1">
          <mxGeometry relative="1" as="geometry">
            <mxPoint x="763.21" y="318.9999999999999" as="sourcePoint" />
            <mxPoint x="85.27999999999997" y="319.4799999999999" as="targetPoint" />
          </mxGeometry>
        </mxCell>
        <mxCell id="WNqidh4Z6-0X3fDuYej7-19" value="&lt;div align=&quot;left&quot;&gt;https://www.wallenhauer.com/resource.php&lt;/div&gt;&lt;div align=&quot;left&quot;&gt;Authorization&amp;nbsp;&amp;nbsp;&amp;nbsp;&amp;nbsp;&amp;nbsp;&amp;nbsp;&amp;nbsp;&amp;nbsp;&amp;nbsp;&amp;nbsp;&amp;nbsp;&amp;nbsp; Bearer {access token}&lt;/div&gt;&lt;div align=&quot;left&quot;&gt;- JSON encoded status data from the Raspberry Pi&lt;/div&gt;&lt;div align=&quot;left&quot;&gt;- optional media file&lt;/div&gt;" style="edgeLabel;html=1;align=center;verticalAlign=middle;resizable=0;points=[];" vertex="1" connectable="0" parent="WNqidh4Z6-0X3fDuYej7-18">
          <mxGeometry x="-0.0015" y="-1" relative="1" as="geometry">
            <mxPoint x="5" y="29" as="offset" />
          </mxGeometry>
        </mxCell>
        <mxCell id="WNqidh4Z6-0X3fDuYej7-21" value="POST request" style="edgeLabel;html=1;align=center;verticalAlign=middle;resizable=0;points=[];" vertex="1" connectable="0" parent="WNqidh4Z6-0X3fDuYej7-18">
          <mxGeometry x="-0.0063" relative="1" as="geometry">
            <mxPoint y="-9" as="offset" />
          </mxGeometry>
        </mxCell>
        <mxCell id="WNqidh4Z6-0X3fDuYej7-26" value="" style="endArrow=classic;html=1;rounded=0;exitX=0.19;exitY=0.679;exitDx=0;exitDy=0;exitPerimeter=0;" edge="1" parent="1">
          <mxGeometry relative="1" as="geometry">
            <mxPoint x="88" y="401" as="sourcePoint" />
            <mxPoint x="760" y="400" as="targetPoint" />
          </mxGeometry>
        </mxCell>
        <mxCell id="WNqidh4Z6-0X3fDuYej7-27" value="- JSON encoded settings for the Raspberry Pi" style="edgeLabel;resizable=0;html=1;;align=left;verticalAlign=middle;" connectable="0" vertex="1" parent="WNqidh4Z6-0X3fDuYej7-26">
          <mxGeometry relative="1" as="geometry">
            <mxPoint x="-114" y="7" as="offset" />
          </mxGeometry>
        </mxCell>
        <mxCell id="WNqidh4Z6-0X3fDuYej7-28" value="JSON response" style="edgeLabel;html=1;align=center;verticalAlign=middle;resizable=0;points=[];" vertex="1" connectable="0" parent="WNqidh4Z6-0X3fDuYej7-26">
          <mxGeometry x="-0.0066" y="-1" relative="1" as="geometry">
            <mxPoint y="-11" as="offset" />
          </mxGeometry>
        </mxCell>
        <mxCell id="WNqidh4Z6-0X3fDuYej7-35" value="" style="endArrow=classic;html=1;rounded=0;entryX=0.576;entryY=0.472;entryDx=0;entryDy=0;entryPerimeter=0;exitX=0.575;exitY=0.679;exitDx=0;exitDy=0;exitPerimeter=0;dashed=1;" edge="1" parent="1">
          <mxGeometry relative="1" as="geometry">
            <mxPoint x="763" y="477" as="sourcePoint" />
            <mxPoint x="85" y="478" as="targetPoint" />
          </mxGeometry>
        </mxCell>
        <mxCell id="WNqidh4Z6-0X3fDuYej7-36" value="&lt;div align=&quot;left&quot;&gt;https://www.wallenhauer.com/resource.php&lt;/div&gt;&lt;div align=&quot;left&quot;&gt;Authorization&amp;nbsp;&amp;nbsp;&amp;nbsp;&amp;nbsp;&amp;nbsp;&amp;nbsp;&amp;nbsp;&amp;nbsp;&amp;nbsp;&amp;nbsp;&amp;nbsp;&amp;nbsp; Bearer {access token}&lt;/div&gt;&lt;div align=&quot;left&quot;&gt;- JSON encoded status data from the Raspberry Pi&lt;/div&gt;&lt;div align=&quot;left&quot;&gt;- optional media file&lt;/div&gt;" style="edgeLabel;html=1;align=center;verticalAlign=middle;resizable=0;points=[];" vertex="1" connectable="0" parent="WNqidh4Z6-0X3fDuYej7-35">
          <mxGeometry x="-0.0015" y="-1" relative="1" as="geometry">
            <mxPoint x="6" y="28" as="offset" />
          </mxGeometry>
        </mxCell>
        <mxCell id="WNqidh4Z6-0X3fDuYej7-38" value="POST request" style="edgeLabel;html=1;align=center;verticalAlign=middle;resizable=0;points=[];" vertex="1" connectable="0" parent="WNqidh4Z6-0X3fDuYej7-35">
          <mxGeometry x="-0.0063" relative="1" as="geometry">
            <mxPoint y="-7" as="offset" />
          </mxGeometry>
        </mxCell>
        <mxCell id="WNqidh4Z6-0X3fDuYej7-39" value="" style="endArrow=classic;html=1;rounded=0;exitX=0.19;exitY=0.679;exitDx=0;exitDy=0;exitPerimeter=0;dashed=1;" edge="1" parent="1">
          <mxGeometry relative="1" as="geometry">
            <mxPoint x="88" y="557" as="sourcePoint" />
            <mxPoint x="760" y="556" as="targetPoint" />
          </mxGeometry>
        </mxCell>
        <mxCell id="WNqidh4Z6-0X3fDuYej7-40" value="- JSON encoded settings for the Raspberry Pi" style="edgeLabel;resizable=0;html=1;;align=left;verticalAlign=middle;" connectable="0" vertex="1" parent="WNqidh4Z6-0X3fDuYej7-39">
          <mxGeometry relative="1" as="geometry">
            <mxPoint x="-114" y="9" as="offset" />
          </mxGeometry>
        </mxCell>
        <mxCell id="WNqidh4Z6-0X3fDuYej7-41" value="JSON response" style="edgeLabel;html=1;align=center;verticalAlign=middle;resizable=0;points=[];" vertex="1" connectable="0" parent="WNqidh4Z6-0X3fDuYej7-39">
          <mxGeometry x="-0.0066" y="-1" relative="1" as="geometry">
            <mxPoint y="-9" as="offset" />
          </mxGeometry>
        </mxCell>
      </root>
    </mxGraphModel>
  </diagram>
</mxfile>
